<svg width="504" height="313" viewBox="0 0 504 313" fill="none" xmlns="http://www.w3.org/2000/svg">
<rect x="0.5" y="0.5" width="155.5" height="155.5" fill="#578556" stroke="white"/>
<rect x="156.5" y="156.5" width="155.5" height="155.5" fill="#578556" stroke="white"/>
<path d="M19.3866 37.1673H56.081C60.5634 37.1673 64.4599 37.6507 67.7704 38.6175C71.1103 39.555 73.8788 40.8587 76.0761 42.5287C78.2733 44.1986 79.8993 46.1908 80.954 48.5052C82.038 50.7904 82.58 53.266 82.58 55.932C82.58 60.2972 81.203 64.1205 78.4491 67.4017C81.6132 69.2767 83.9716 71.7083 85.5243 74.6966C87.0771 77.6849 87.8534 81.0833 87.8534 84.8919C87.8534 88.0853 87.3114 90.971 86.2274 93.5492C85.1728 96.1273 83.5468 98.3392 81.3495 100.185C79.1815 102.001 76.4276 103.408 73.0878 104.404C69.7773 105.37 65.8661 105.854 61.3544 105.854H19.3866V37.1673ZM61.4423 63.5345C62.6435 63.5345 63.8153 63.5785 64.9579 63.6664C66.9208 61.7914 67.9023 59.6527 67.9023 57.2503C67.9023 54.7601 66.9208 52.8412 64.9579 51.4935C63.0243 50.1165 60.1825 49.4281 56.4325 49.4281H33.3173V63.5345H61.4423ZM61.706 93.7249C65.456 93.7249 68.2978 92.9193 70.2314 91.308C72.1942 89.6966 73.1757 87.4261 73.1757 84.4964C73.1757 81.5667 72.1942 79.2816 70.2314 77.641C68.2978 76.0003 65.456 75.18 61.706 75.18H33.3173V93.7249H61.706ZM100.378 53.9984H113.386V61.4691C116.257 59.3304 119.289 57.4847 122.482 55.932C125.676 54.3792 128.854 53.1927 132.018 52.3724L135.842 64.2816C130.832 64.7796 126.423 65.9076 122.614 67.6654C118.835 69.3939 115.759 71.8402 113.386 75.0042V105.854H100.378V53.9984Z" fill="white"/>
<path d="M167.622 199.206H202.277C206.511 199.206 210.191 199.663 213.317 200.576C216.472 201.461 219.086 202.693 221.162 204.27C223.237 205.847 224.772 207.728 225.769 209.914C226.792 212.073 227.304 214.411 227.304 216.928C227.304 221.051 226.004 224.662 223.403 227.761C226.391 229.532 228.618 231.828 230.085 234.651C231.551 237.473 232.285 240.683 232.285 244.28C232.285 247.296 231.773 250.021 230.749 252.456C229.753 254.891 228.217 256.98 226.142 258.723C224.095 260.438 221.494 261.767 218.339 262.707C215.213 263.62 211.519 264.077 207.258 264.077H167.622V199.206ZM207.341 224.109C208.475 224.109 209.582 224.15 210.661 224.233C212.515 222.462 213.442 220.442 213.442 218.174C213.442 215.822 212.515 214.009 210.661 212.737C208.835 211.436 206.151 210.786 202.609 210.786H180.778V224.109H207.341ZM207.59 252.622C211.131 252.622 213.815 251.861 215.642 250.339C217.495 248.817 218.422 246.673 218.422 243.906C218.422 241.139 217.495 238.981 215.642 237.431C213.815 235.882 211.131 235.107 207.59 235.107H180.778V252.622H207.59ZM241.789 248.637C241.789 246.286 242.301 244.141 243.325 242.204C244.348 240.268 245.884 238.607 247.932 237.224C249.979 235.813 252.525 234.734 255.568 233.987C258.64 233.212 262.209 232.824 266.276 232.824C269.292 232.824 272.46 233.046 275.781 233.489C279.129 233.931 282.574 234.609 286.115 235.522C285.977 233.973 285.506 232.548 284.704 231.247C283.902 229.919 282.781 228.785 281.342 227.844C279.931 226.876 278.216 226.129 276.196 225.603C274.204 225.077 271.935 224.814 269.389 224.814C268.006 224.814 266.484 224.897 264.824 225.063C263.164 225.229 261.448 225.478 259.677 225.81C257.906 226.142 256.149 226.557 254.406 227.055C252.691 227.553 251.086 228.148 249.592 228.84L245.856 218.755C247.71 218.091 249.689 217.482 251.791 216.928C253.922 216.375 256.094 215.905 258.308 215.517C260.521 215.102 262.735 214.784 264.948 214.563C267.162 214.341 269.306 214.231 271.381 214.231C280.54 214.231 287.347 216.569 291.801 221.245C296.256 225.921 298.483 233.087 298.483 242.744V264.077H286.198V259.47C284.925 260.217 283.528 260.923 282.006 261.587C280.512 262.251 278.88 262.832 277.109 263.33C275.338 263.828 273.429 264.215 271.381 264.492C269.361 264.796 267.217 264.949 264.948 264.949C261.13 264.949 257.768 264.533 254.863 263.703C251.985 262.873 249.578 261.725 247.641 260.259C245.704 258.792 244.238 257.077 243.242 255.112C242.273 253.12 241.789 250.962 241.789 248.637ZM254.738 248.222C254.738 249.025 254.946 249.8 255.361 250.547C255.776 251.266 256.44 251.916 257.353 252.497C258.266 253.051 259.428 253.507 260.839 253.867C262.278 254.199 264.007 254.365 266.027 254.365C268.186 254.365 270.275 254.171 272.294 253.784C274.314 253.397 276.196 252.885 277.939 252.248C279.682 251.612 281.259 250.879 282.67 250.049C284.082 249.219 285.257 248.361 286.198 247.475V245.317C284.317 244.791 282.449 244.349 280.595 243.989C278.769 243.629 277.012 243.353 275.324 243.159C273.664 242.938 272.087 242.785 270.593 242.702C269.126 242.619 267.84 242.578 266.733 242.578C264.436 242.578 262.527 242.73 261.005 243.034C259.484 243.339 258.252 243.754 257.312 244.28C256.371 244.778 255.707 245.372 255.319 246.064C254.932 246.756 254.738 247.475 254.738 248.222Z" fill="white"/>
<path d="M121.061 11.3149C121.253 11.4093 121.458 11.4785 121.676 11.5224C121.896 11.5647 122.11 11.5859 122.318 11.5859C122.504 11.5859 122.664 11.5712 122.799 11.5419C122.934 11.511 123.046 11.4695 123.134 11.4174C123.222 11.3653 123.287 11.3035 123.329 11.2319C123.371 11.1603 123.392 11.0829 123.392 10.9999C123.392 10.8876 123.354 10.7875 123.278 10.6996C123.201 10.6101 123.085 10.5434 122.929 10.4995C122.774 10.4539 122.578 10.436 122.34 10.4457C122.104 10.4555 121.826 10.5019 121.505 10.5849L121.508 10.0136L122.933 9.08588H120.914V8.40717H123.969V9.07123L122.714 9.86713C122.943 9.86713 123.148 9.89642 123.329 9.95502C123.51 10.0136 123.662 10.0942 123.785 10.1967C123.909 10.2993 124.004 10.4205 124.069 10.5605C124.134 10.7005 124.166 10.851 124.166 11.0121C124.166 11.2026 124.124 11.3759 124.039 11.5322C123.956 11.6868 123.835 11.8194 123.676 11.9301C123.516 12.0392 123.321 12.1238 123.09 12.184C122.86 12.2442 122.6 12.2744 122.308 12.2744C121.999 12.2744 121.714 12.2418 121.452 12.1767C121.189 12.11 120.94 12.018 120.704 11.9008L121.061 11.3149ZM125.206 11.3149C125.299 11.3621 125.399 11.4028 125.507 11.437C125.616 11.4695 125.727 11.4972 125.841 11.52C125.957 11.5427 126.072 11.5598 126.188 11.5712C126.305 11.581 126.419 11.5859 126.53 11.5859C126.725 11.5859 126.893 11.572 127.035 11.5444C127.178 11.5151 127.295 11.4744 127.387 11.4223C127.479 11.3702 127.548 11.3084 127.592 11.2368C127.637 11.1635 127.66 11.0829 127.66 10.9951C127.66 10.9055 127.636 10.8233 127.589 10.7485C127.544 10.6736 127.474 10.6093 127.382 10.5556C127.291 10.5019 127.175 10.4604 127.035 10.4311C126.897 10.4002 126.735 10.3847 126.549 10.3847C126.466 10.3847 126.373 10.3888 126.268 10.3969C126.164 10.4034 126.054 10.4148 125.936 10.4311C125.819 10.4474 125.697 10.4702 125.57 10.4995C125.443 10.5271 125.315 10.5613 125.184 10.602V8.40717H128.112V9.0932H125.9V9.83295C126.022 9.80528 126.15 9.78249 126.283 9.76459C126.417 9.74506 126.565 9.73529 126.73 9.73529C126.998 9.73529 127.238 9.76459 127.45 9.82318C127.662 9.88177 127.84 9.9656 127.985 10.0746C128.131 10.1837 128.243 10.3155 128.319 10.4702C128.396 10.6231 128.434 10.7949 128.434 10.9853C128.434 11.1822 128.392 11.3605 128.309 11.52C128.228 11.6778 128.107 11.8129 127.946 11.9252C127.786 12.0375 127.589 12.1238 127.355 12.184C127.122 12.2442 126.854 12.2744 126.552 12.2744C126.395 12.2744 126.24 12.2654 126.085 12.2475C125.932 12.2312 125.783 12.2076 125.639 12.1767C125.494 12.1441 125.355 12.1051 125.221 12.0595C125.089 12.0123 124.966 11.9594 124.85 11.9008L125.206 11.3149Z" fill="white"/>
<path d="M274.624 172.13C274.717 172.177 274.817 172.218 274.924 172.252C275.033 172.285 275.145 172.313 275.259 172.335C275.374 172.358 275.49 172.375 275.605 172.387C275.723 172.396 275.836 172.401 275.947 172.401C276.142 172.401 276.311 172.387 276.453 172.36C276.596 172.33 276.713 172.29 276.804 172.238C276.897 172.186 276.965 172.124 277.009 172.052C277.055 171.979 277.078 171.898 277.078 171.81C277.078 171.721 277.054 171.639 277.007 171.564C276.961 171.489 276.892 171.425 276.799 171.371C276.708 171.317 276.592 171.276 276.453 171.246C276.314 171.216 276.152 171.2 275.967 171.2C275.884 171.2 275.79 171.204 275.686 171.212C275.582 171.219 275.471 171.23 275.354 171.246C275.237 171.263 275.115 171.286 274.988 171.315C274.861 171.343 274.732 171.377 274.602 171.417V169.223H277.529V169.909H275.317V170.648C275.439 170.621 275.567 170.598 275.701 170.58C275.834 170.56 275.983 170.551 276.147 170.551C276.416 170.551 276.656 170.58 276.868 170.639C277.079 170.697 277.257 170.781 277.402 170.89C277.549 170.999 277.66 171.131 277.737 171.286C277.813 171.439 277.851 171.61 277.851 171.801C277.851 171.998 277.81 172.176 277.727 172.335C277.646 172.493 277.524 172.628 277.363 172.741C277.204 172.853 277.007 172.939 276.772 172.999C276.54 173.06 276.272 173.09 275.969 173.09C275.813 173.09 275.657 173.081 275.503 173.063C275.35 173.047 275.201 173.023 275.056 172.992C274.911 172.96 274.772 172.92 274.639 172.875C274.507 172.828 274.383 172.775 274.267 172.716L274.624 172.13ZM278.625 171.237C278.625 170.89 278.677 170.588 278.779 170.331C278.883 170.072 279.025 169.857 279.204 169.686C279.385 169.516 279.597 169.388 279.841 169.303C280.085 169.218 280.349 169.176 280.632 169.176C280.751 169.176 280.871 169.183 280.994 169.196C281.117 169.207 281.238 169.226 281.357 169.252C281.476 169.278 281.591 169.312 281.702 169.354C281.814 169.395 281.918 169.444 282.014 169.501L281.67 170.087C281.598 170.046 281.522 170.012 281.44 169.984C281.361 169.955 281.278 169.932 281.191 169.916C281.105 169.898 281.018 169.885 280.93 169.877C280.842 169.869 280.756 169.865 280.671 169.865C280.482 169.865 280.312 169.889 280.159 169.938C280.007 169.987 279.876 170.056 279.766 170.145C279.655 170.235 279.566 170.342 279.499 170.468C279.434 170.591 279.394 170.729 279.377 170.88C279.462 170.814 279.556 170.756 279.658 170.707C279.761 170.658 279.869 170.618 279.983 170.587C280.098 170.555 280.216 170.531 280.337 170.516C280.459 170.5 280.581 170.492 280.703 170.492C280.941 170.492 281.156 170.521 281.35 170.578C281.545 170.634 281.712 170.717 281.85 170.824C281.989 170.932 282.095 171.063 282.17 171.217C282.247 171.37 282.285 171.544 282.285 171.74C282.285 171.932 282.247 172.11 282.17 172.274C282.095 172.439 281.984 172.582 281.836 172.704C281.688 172.824 281.504 172.92 281.284 172.99C281.064 173.058 280.81 173.092 280.52 173.092C280.238 173.092 279.981 173.056 279.748 172.985C279.516 172.913 279.316 172.802 279.15 172.65C278.984 172.499 278.855 172.307 278.762 172.074C278.671 171.84 278.625 171.561 278.625 171.237ZM279.394 171.596C279.433 171.863 279.551 172.064 279.746 172.201C279.941 172.336 280.198 172.404 280.515 172.404C280.675 172.404 280.816 172.387 280.94 172.355C281.064 172.322 281.168 172.278 281.252 172.221C281.337 172.162 281.401 172.093 281.445 172.013C281.489 171.933 281.511 171.846 281.511 171.752C281.511 171.672 281.494 171.597 281.46 171.527C281.426 171.457 281.372 171.397 281.299 171.347C281.227 171.294 281.134 171.254 281.02 171.225C280.906 171.194 280.769 171.178 280.608 171.178C280.473 171.178 280.345 171.189 280.224 171.21C280.104 171.231 279.993 171.26 279.89 171.298C279.787 171.335 279.694 171.379 279.609 171.43C279.526 171.48 279.455 171.535 279.394 171.596Z" fill="white"/>
<path d="M162.169 79.7503C162.169 76.2347 162.887 72.8802 164.322 69.6869C165.758 66.4642 167.823 63.6224 170.519 61.1615C173.214 58.7005 176.51 56.7376 180.406 55.2728C184.332 53.808 188.785 53.0755 193.766 53.0755C198.717 53.0755 203.17 53.8226 207.125 55.3167C211.109 56.7816 214.479 58.8031 217.232 61.3812C220.016 63.9593 222.14 66.9915 223.604 70.4779C225.099 73.9642 225.846 77.6996 225.846 81.6839C225.846 82.182 225.831 82.724 225.802 83.3099C225.802 83.8665 225.772 84.3792 225.714 84.848H176.671C177.228 86.4007 178.121 87.8216 179.352 89.1107C180.611 90.3997 182.179 91.513 184.054 92.4505C185.929 93.388 188.097 94.1205 190.558 94.6478C193.019 95.1458 195.743 95.3949 198.731 95.3949C201.72 95.3949 204.693 95.0872 207.652 94.472C210.611 93.8275 213.438 93.0218 216.134 92.055L220.528 101.987C218.829 102.778 217.101 103.481 215.343 104.096C213.614 104.682 211.798 105.18 209.894 105.59C208.019 105.971 206.041 106.264 203.961 106.469C201.91 106.674 199.742 106.777 197.457 106.777C191.627 106.777 186.515 106.074 182.12 104.667C177.726 103.261 174.049 101.342 171.09 98.9105C168.131 96.4789 165.904 93.6224 164.41 90.3412C162.916 87.0599 162.169 83.5296 162.169 79.7503ZM212.047 74.6966C211.578 73.2611 210.846 71.9281 209.85 70.6976C208.883 69.4378 207.667 68.3539 206.202 67.4456C204.737 66.5081 203.038 65.7757 201.104 65.2484C199.171 64.721 197.047 64.4574 194.732 64.4574C192.271 64.4574 190.03 64.7357 188.009 65.2923C185.987 65.849 184.215 66.596 182.691 67.5335C181.168 68.471 179.894 69.555 178.868 70.7855C177.872 72.016 177.14 73.3197 176.671 74.6966H212.047ZM239.908 32.9486H252.916V76.015L277.174 53.9984H297.081L269.967 78.2562L298.795 105.854H279.283L259.991 87.1771L252.916 93.5052V105.854H239.908V32.9486ZM314.22 46.9232C312.931 46.9232 311.759 46.7474 310.704 46.3958C309.679 46.015 308.8 45.5169 308.067 44.9017C307.335 44.2572 306.764 43.5247 306.354 42.7044C305.973 41.8548 305.782 40.9613 305.782 40.0238C305.782 39.057 305.973 38.1634 306.354 37.3431C306.764 36.4935 307.335 35.7611 308.067 35.1458C308.8 34.5306 309.679 34.0472 310.704 33.6956C311.759 33.3148 312.931 33.1244 314.22 33.1244C315.538 33.1244 316.71 33.3148 317.735 33.6956C318.79 34.0472 319.684 34.5306 320.416 35.1458C321.148 35.7611 321.705 36.4935 322.086 37.3431C322.496 38.1634 322.701 39.057 322.701 40.0238C322.701 40.9613 322.496 41.8548 322.086 42.7044C321.705 43.5247 321.148 44.2572 320.416 44.9017C319.684 45.5169 318.79 46.015 317.735 46.3958C316.71 46.7474 315.538 46.9232 314.22 46.9232ZM307.716 53.9984H320.724V105.854H307.716V53.9984ZM337.423 53.9984H350.431V58.3929C353.888 56.43 357.184 55.0531 360.318 54.2621C363.482 53.471 366.573 53.0755 369.591 53.0755C373.546 53.0755 377.208 53.6615 380.577 54.8333C383.946 55.9759 386.861 57.6898 389.322 59.9749C391.783 62.2601 393.702 65.1165 395.079 68.5443C396.485 71.9427 397.188 75.8831 397.188 80.3656V105.854H384.225V82.4749C384.225 79.6331 383.814 77.099 382.994 74.8724C382.203 72.6165 381.046 70.7269 379.522 69.2035C378.028 67.6507 376.197 66.4789 374.029 65.6878C371.891 64.8675 369.488 64.4574 366.822 64.4574C365.416 64.4574 363.966 64.6039 362.472 64.8968C361.007 65.1898 359.557 65.6146 358.121 66.1712C356.715 66.6986 355.353 67.3724 354.034 68.1927C352.716 68.9837 351.515 69.8919 350.431 70.9173V105.854H337.423V53.9984ZM421.314 114.643C422.955 115.229 424.625 115.712 426.324 116.093C428.023 116.503 429.664 116.826 431.246 117.06C432.857 117.324 434.396 117.499 435.86 117.587C437.325 117.704 438.629 117.763 439.771 117.763C443.229 117.763 446.231 117.338 448.78 116.489C451.358 115.668 453.497 114.555 455.196 113.149C456.925 111.743 458.214 110.102 459.063 108.227C459.913 106.381 460.338 104.418 460.338 102.338V100.097C459.225 100.859 457.921 101.591 456.427 102.294C454.933 102.997 453.292 103.613 451.505 104.14C449.718 104.667 447.813 105.092 445.792 105.414C443.8 105.737 441.734 105.898 439.596 105.898C435.348 105.898 431.422 105.268 427.818 104.008C424.215 102.719 421.095 100.932 418.458 98.6468C415.821 96.3324 413.756 93.5638 412.262 90.3412C410.797 87.1185 410.064 83.5443 410.064 79.6185C410.064 75.6048 410.841 71.972 412.394 68.7201C413.946 65.4388 416.085 62.641 418.81 60.3265C421.563 58.0121 424.815 56.2249 428.565 54.9652C432.315 53.7054 436.388 53.0755 440.782 53.0755C442.657 53.0755 444.518 53.1927 446.363 53.4271C448.209 53.6615 449.967 53.9837 451.637 54.3939C453.336 54.804 454.918 55.3021 456.383 55.888C457.877 56.4447 459.195 57.0599 460.338 57.7337V53.9984H473.346V99.9212C473.346 104.638 472.628 108.813 471.192 112.446C469.757 116.078 467.647 119.125 464.864 121.586C462.11 124.077 458.683 125.952 454.581 127.211C450.479 128.5 445.777 129.145 440.475 129.145C438.57 129.145 436.593 129.057 434.542 128.881C432.491 128.735 430.426 128.5 428.346 128.178C426.295 127.885 424.259 127.519 422.237 127.079C420.245 126.669 418.326 126.186 416.48 125.629L421.314 114.643ZM423.731 79.4867C423.731 81.5667 424.142 83.5296 424.962 85.3753C425.812 87.1917 427.013 88.7884 428.565 90.1654C430.118 91.513 431.993 92.5824 434.19 93.3734C436.388 94.1351 438.863 94.516 441.617 94.516C443.404 94.516 445.177 94.3548 446.935 94.0326C448.722 93.681 450.421 93.1976 452.032 92.5824C453.673 91.9671 455.196 91.2201 456.603 90.3412C458.038 89.4622 459.283 88.4808 460.338 87.3968V70.3021C459.02 69.2474 457.628 68.3539 456.163 67.6214C454.698 66.889 453.204 66.2884 451.681 65.8197C450.157 65.3509 448.619 65.014 447.066 64.8089C445.514 64.5746 444.005 64.4574 442.54 64.4574C439.552 64.4574 436.886 64.8529 434.542 65.6439C432.228 66.4349 430.265 67.5189 428.653 68.8958C427.071 70.2435 425.855 71.8255 425.006 73.6419C424.156 75.4583 423.731 77.4066 423.731 79.4867Z" fill="white"/>
<path d="M316.401 239.797C316.401 235.896 317.135 232.382 318.601 229.255C320.068 226.101 322.087 223.417 324.661 221.203C327.262 218.962 330.333 217.247 333.875 216.057C337.444 214.839 341.304 214.231 345.454 214.231C347.225 214.231 348.968 214.341 350.684 214.563C352.427 214.784 354.087 215.088 355.664 215.476C357.269 215.863 358.763 216.334 360.146 216.887C361.558 217.413 362.803 217.994 363.882 218.63V195.222H376.167V264.077H363.882V259.47C362.803 260.217 361.53 260.923 360.063 261.587C358.597 262.251 357.02 262.832 355.332 263.33C353.644 263.828 351.887 264.215 350.061 264.492C348.263 264.796 346.478 264.949 344.707 264.949C340.557 264.949 336.738 264.34 333.252 263.122C329.793 261.905 326.819 260.189 324.329 257.976C321.838 255.762 319.888 253.12 318.477 250.049C317.093 246.95 316.401 243.532 316.401 239.797ZM329.309 239.797C329.309 241.762 329.696 243.615 330.471 245.359C331.274 247.102 332.408 248.637 333.875 249.966C335.369 251.266 337.153 252.304 339.229 253.078C341.331 253.825 343.683 254.199 346.284 254.199C347.944 254.199 349.604 254.047 351.265 253.742C352.925 253.41 354.516 252.954 356.038 252.373C357.587 251.792 359.026 251.086 360.354 250.256C361.71 249.426 362.886 248.499 363.882 247.475V230.5C362.637 229.504 361.322 228.66 359.939 227.969C358.556 227.277 357.144 226.71 355.706 226.267C354.267 225.824 352.814 225.506 351.348 225.312C349.881 225.091 348.456 224.98 347.073 224.98C344.25 224.98 341.733 225.368 339.519 226.142C337.333 226.889 335.479 227.927 333.958 229.255C332.463 230.583 331.315 232.147 330.513 233.945C329.71 235.744 329.309 237.694 329.309 239.797Z" fill="white"/>
</svg>
