<svg width="512" height="512" viewBox="0 0 512 512" fill="none" xmlns="http://www.w3.org/2000/svg">
<path d="M0 0H512V512H0V0Z" fill="#FFE35A"/>
<rect x="4.5" y="100.5" width="155.5" height="155.5" fill="#578556" stroke="white"/>
<rect x="160.5" y="256.5" width="155.5" height="155.5" fill="#578556" stroke="white"/>
<path d="M23.3866 137.167H60.081C64.5634 137.167 68.4599 137.651 71.7704 138.618C75.1103 139.555 77.8788 140.859 80.0761 142.529C82.2733 144.199 83.8993 146.191 84.954 148.505C86.038 150.79 86.58 153.266 86.58 155.932C86.58 160.297 85.203 164.12 82.4491 167.402C85.6132 169.277 87.9716 171.708 89.5243 174.697C91.0771 177.685 91.8534 181.083 91.8534 184.892C91.8534 188.085 91.3114 190.971 90.2274 193.549C89.1728 196.127 87.5468 198.339 85.3495 200.185C83.1815 202.001 80.4276 203.408 77.0878 204.404C73.7773 205.37 69.8661 205.854 65.3544 205.854H23.3866V137.167ZM65.4423 163.535C66.6435 163.535 67.8153 163.578 68.9579 163.666C70.9208 161.791 71.9023 159.653 71.9023 157.25C71.9023 154.76 70.9208 152.841 68.9579 151.493C67.0243 150.117 64.1825 149.428 60.4325 149.428H37.3173V163.535H65.4423ZM65.706 193.725C69.456 193.725 72.2978 192.919 74.2314 191.308C76.1942 189.697 77.1757 187.426 77.1757 184.496C77.1757 181.567 76.1942 179.282 74.2314 177.641C72.2978 176 69.456 175.18 65.706 175.18H37.3173V193.725H65.706ZM104.378 153.998H117.386V161.469C120.257 159.33 123.289 157.485 126.482 155.932C129.676 154.379 132.854 153.193 136.018 152.372L139.842 164.282C134.832 164.78 130.423 165.908 126.614 167.665C122.835 169.394 119.759 171.84 117.386 175.004V205.854H104.378V153.998Z" fill="white"/>
<path d="M171.622 299.206H206.277C210.511 299.206 214.191 299.663 217.317 300.576C220.472 301.461 223.086 302.693 225.162 304.27C227.237 305.847 228.772 307.728 229.769 309.914C230.792 312.073 231.304 314.411 231.304 316.928C231.304 321.051 230.004 324.662 227.403 327.761C230.391 329.532 232.618 331.828 234.085 334.651C235.551 337.473 236.285 340.683 236.285 344.28C236.285 347.296 235.773 350.021 234.749 352.456C233.753 354.891 232.217 356.98 230.142 358.723C228.095 360.438 225.494 361.767 222.339 362.707C219.213 363.62 215.519 364.077 211.258 364.077H171.622V299.206ZM211.341 324.109C212.475 324.109 213.582 324.15 214.661 324.233C216.515 322.462 217.442 320.442 217.442 318.174C217.442 315.822 216.515 314.009 214.661 312.737C212.835 311.436 210.151 310.786 206.609 310.786H184.778V324.109H211.341ZM211.59 352.622C215.131 352.622 217.815 351.861 219.642 350.339C221.495 348.817 222.422 346.673 222.422 343.906C222.422 341.139 221.495 338.981 219.642 337.431C217.815 335.882 215.131 335.107 211.59 335.107H184.778V352.622H211.59ZM245.789 348.637C245.789 346.286 246.301 344.141 247.325 342.204C248.348 340.268 249.884 338.607 251.932 337.224C253.979 335.813 256.525 334.734 259.568 333.987C262.64 333.212 266.209 332.824 270.276 332.824C273.292 332.824 276.46 333.046 279.781 333.489C283.129 333.931 286.574 334.609 290.115 335.522C289.977 333.973 289.506 332.548 288.704 331.247C287.902 329.919 286.781 328.785 285.342 327.844C283.931 326.876 282.216 326.129 280.196 325.603C278.204 325.077 275.935 324.814 273.389 324.814C272.006 324.814 270.484 324.897 268.824 325.063C267.164 325.229 265.448 325.478 263.677 325.81C261.906 326.142 260.149 326.557 258.406 327.055C256.691 327.553 255.086 328.148 253.592 328.84L249.856 318.755C251.71 318.091 253.689 317.482 255.791 316.928C257.922 316.375 260.094 315.905 262.308 315.517C264.521 315.102 266.735 314.784 268.948 314.563C271.162 314.341 273.306 314.231 275.381 314.231C284.54 314.231 291.347 316.569 295.801 321.245C300.256 325.921 302.483 333.087 302.483 342.744V364.077H290.198V359.47C288.925 360.217 287.528 360.923 286.006 361.587C284.512 362.251 282.88 362.832 281.109 363.33C279.338 363.828 277.429 364.215 275.381 364.492C273.361 364.796 271.217 364.949 268.948 364.949C265.13 364.949 261.768 364.533 258.863 363.703C255.985 362.873 253.578 361.725 251.641 360.259C249.704 358.792 248.238 357.077 247.242 355.112C246.273 353.12 245.789 350.962 245.789 348.637ZM258.738 348.222C258.738 349.025 258.946 349.8 259.361 350.547C259.776 351.266 260.44 351.916 261.353 352.497C262.266 353.051 263.428 353.507 264.839 353.867C266.278 354.199 268.007 354.365 270.027 354.365C272.186 354.365 274.275 354.171 276.294 353.784C278.314 353.397 280.196 352.885 281.939 352.248C283.682 351.612 285.259 350.879 286.67 350.049C288.082 349.219 289.257 348.361 290.198 347.475V345.317C288.317 344.791 286.449 344.349 284.595 343.989C282.769 343.629 281.012 343.353 279.324 343.159C277.664 342.938 276.087 342.785 274.593 342.702C273.126 342.619 271.84 342.578 270.733 342.578C268.436 342.578 266.527 342.73 265.005 343.034C263.484 343.339 262.252 343.754 261.312 344.28C260.371 344.778 259.707 345.372 259.319 346.064C258.932 346.756 258.738 347.475 258.738 348.222Z" fill="white"/>
<path d="M125.061 111.315C125.253 111.409 125.458 111.478 125.676 111.522C125.896 111.565 126.11 111.586 126.318 111.586C126.504 111.586 126.664 111.571 126.799 111.542C126.934 111.511 127.046 111.47 127.134 111.417C127.222 111.365 127.287 111.303 127.329 111.232C127.371 111.16 127.392 111.083 127.392 111C127.392 110.888 127.354 110.788 127.278 110.7C127.201 110.61 127.085 110.543 126.929 110.499C126.774 110.454 126.578 110.436 126.34 110.446C126.104 110.456 125.826 110.502 125.505 110.585L125.508 110.014L126.933 109.086H124.914V108.407H127.969V109.071L126.714 109.867C126.943 109.867 127.148 109.896 127.329 109.955C127.51 110.014 127.662 110.094 127.785 110.197C127.909 110.299 128.004 110.421 128.069 110.56C128.134 110.7 128.166 110.851 128.166 111.012C128.166 111.203 128.124 111.376 128.039 111.532C127.956 111.687 127.835 111.819 127.676 111.93C127.516 112.039 127.321 112.124 127.09 112.184C126.86 112.244 126.6 112.274 126.308 112.274C125.999 112.274 125.714 112.242 125.452 112.177C125.189 112.11 124.94 112.018 124.704 111.901L125.061 111.315ZM129.206 111.315C129.299 111.362 129.399 111.403 129.507 111.437C129.616 111.47 129.727 111.497 129.841 111.52C129.957 111.543 130.072 111.56 130.188 111.571C130.305 111.581 130.419 111.586 130.53 111.586C130.725 111.586 130.893 111.572 131.035 111.544C131.178 111.515 131.295 111.474 131.387 111.422C131.479 111.37 131.548 111.308 131.592 111.237C131.637 111.164 131.66 111.083 131.66 110.995C131.66 110.906 131.636 110.823 131.589 110.748C131.544 110.674 131.474 110.609 131.382 110.556C131.291 110.502 131.175 110.46 131.035 110.431C130.897 110.4 130.735 110.385 130.549 110.385C130.466 110.385 130.373 110.389 130.268 110.397C130.164 110.403 130.054 110.415 129.936 110.431C129.819 110.447 129.697 110.47 129.57 110.499C129.443 110.527 129.315 110.561 129.184 110.602V108.407H132.112V109.093H129.9V109.833C130.022 109.805 130.15 109.782 130.283 109.765C130.417 109.745 130.565 109.735 130.73 109.735C130.998 109.735 131.238 109.765 131.45 109.823C131.662 109.882 131.84 109.966 131.985 110.075C132.131 110.184 132.243 110.316 132.319 110.47C132.396 110.623 132.434 110.795 132.434 110.985C132.434 111.182 132.392 111.36 132.309 111.52C132.228 111.678 132.107 111.813 131.946 111.925C131.786 112.038 131.589 112.124 131.355 112.184C131.122 112.244 130.854 112.274 130.552 112.274C130.395 112.274 130.24 112.265 130.085 112.247C129.932 112.231 129.783 112.208 129.639 112.177C129.494 112.144 129.355 112.105 129.221 112.06C129.089 112.012 128.966 111.959 128.85 111.901L129.206 111.315Z" fill="white"/>
<path d="M278.624 272.13C278.717 272.177 278.817 272.218 278.924 272.252C279.033 272.285 279.145 272.313 279.259 272.335C279.374 272.358 279.49 272.375 279.605 272.387C279.723 272.396 279.836 272.401 279.947 272.401C280.142 272.401 280.311 272.387 280.453 272.36C280.596 272.33 280.713 272.29 280.804 272.238C280.897 272.186 280.965 272.124 281.009 272.052C281.055 271.979 281.078 271.898 281.078 271.81C281.078 271.721 281.054 271.639 281.007 271.564C280.961 271.489 280.892 271.425 280.799 271.371C280.708 271.317 280.592 271.276 280.453 271.246C280.314 271.216 280.152 271.2 279.967 271.2C279.884 271.2 279.79 271.204 279.686 271.212C279.582 271.219 279.471 271.23 279.354 271.246C279.237 271.263 279.115 271.286 278.988 271.315C278.861 271.343 278.732 271.377 278.602 271.417V269.223H281.529V269.909H279.317V270.648C279.439 270.621 279.567 270.598 279.701 270.58C279.834 270.56 279.983 270.551 280.147 270.551C280.416 270.551 280.656 270.58 280.868 270.639C281.079 270.697 281.257 270.781 281.402 270.89C281.549 270.999 281.66 271.131 281.737 271.286C281.813 271.439 281.851 271.61 281.851 271.801C281.851 271.998 281.81 272.176 281.727 272.335C281.646 272.493 281.524 272.628 281.363 272.741C281.204 272.853 281.007 272.939 280.772 272.999C280.54 273.06 280.272 273.09 279.969 273.09C279.813 273.09 279.657 273.081 279.503 273.063C279.35 273.047 279.201 273.023 279.056 272.992C278.911 272.96 278.772 272.92 278.639 272.875C278.507 272.828 278.383 272.775 278.267 272.716L278.624 272.13ZM282.625 271.237C282.625 270.89 282.677 270.588 282.779 270.331C282.883 270.072 283.025 269.857 283.204 269.686C283.385 269.516 283.597 269.388 283.841 269.303C284.085 269.218 284.349 269.176 284.632 269.176C284.751 269.176 284.871 269.183 284.994 269.196C285.117 269.207 285.238 269.226 285.357 269.252C285.476 269.278 285.591 269.312 285.702 269.354C285.814 269.395 285.918 269.444 286.014 269.501L285.67 270.087C285.598 270.046 285.522 270.012 285.44 269.984C285.361 269.955 285.278 269.932 285.191 269.916C285.105 269.898 285.018 269.885 284.93 269.877C284.842 269.869 284.756 269.865 284.671 269.865C284.482 269.865 284.312 269.889 284.159 269.938C284.007 269.987 283.876 270.056 283.766 270.145C283.655 270.235 283.566 270.342 283.499 270.468C283.434 270.591 283.394 270.729 283.377 270.88C283.462 270.814 283.556 270.756 283.658 270.707C283.761 270.658 283.869 270.618 283.983 270.587C284.098 270.555 284.216 270.531 284.337 270.516C284.459 270.5 284.581 270.492 284.703 270.492C284.941 270.492 285.156 270.521 285.35 270.578C285.545 270.634 285.712 270.717 285.85 270.824C285.989 270.932 286.095 271.063 286.17 271.217C286.247 271.37 286.285 271.544 286.285 271.74C286.285 271.932 286.247 272.11 286.17 272.274C286.095 272.439 285.984 272.582 285.836 272.704C285.688 272.824 285.504 272.92 285.284 272.99C285.064 273.058 284.81 273.092 284.52 273.092C284.238 273.092 283.981 273.056 283.748 272.985C283.516 272.913 283.316 272.802 283.15 272.65C282.984 272.499 282.855 272.307 282.762 272.074C282.671 271.84 282.625 271.561 282.625 271.237ZM283.394 271.596C283.433 271.863 283.551 272.064 283.746 272.201C283.941 272.336 284.198 272.404 284.515 272.404C284.675 272.404 284.816 272.387 284.94 272.355C285.064 272.322 285.168 272.278 285.252 272.221C285.337 272.162 285.401 272.093 285.445 272.013C285.489 271.933 285.511 271.846 285.511 271.752C285.511 271.672 285.494 271.597 285.46 271.527C285.426 271.457 285.372 271.397 285.299 271.347C285.227 271.294 285.134 271.254 285.02 271.225C284.906 271.194 284.769 271.178 284.608 271.178C284.473 271.178 284.345 271.189 284.224 271.21C284.104 271.231 283.993 271.26 283.89 271.298C283.787 271.335 283.694 271.379 283.609 271.43C283.526 271.48 283.455 271.535 283.394 271.596Z" fill="white"/>
<path d="M166.169 179.75C166.169 176.235 166.887 172.88 168.322 169.687C169.758 166.464 171.823 163.622 174.519 161.161C177.214 158.701 180.51 156.738 184.406 155.273C188.332 153.808 192.785 153.076 197.766 153.076C202.717 153.076 207.17 153.823 211.125 155.317C215.109 156.782 218.479 158.803 221.232 161.381C224.016 163.959 226.14 166.992 227.604 170.478C229.099 173.964 229.846 177.7 229.846 181.684C229.846 182.182 229.831 182.724 229.802 183.31C229.802 183.867 229.772 184.379 229.714 184.848H180.671C181.228 186.401 182.121 187.822 183.352 189.111C184.611 190.4 186.179 191.513 188.054 192.451C189.929 193.388 192.097 194.12 194.558 194.648C197.019 195.146 199.743 195.395 202.731 195.395C205.72 195.395 208.693 195.087 211.652 194.472C214.611 193.827 217.438 193.022 220.134 192.055L224.528 201.987C222.829 202.778 221.101 203.481 219.343 204.096C217.614 204.682 215.798 205.18 213.894 205.59C212.019 205.971 210.041 206.264 207.961 206.469C205.91 206.674 203.742 206.777 201.457 206.777C195.627 206.777 190.515 206.074 186.12 204.667C181.726 203.261 178.049 201.342 175.09 198.91C172.131 196.479 169.904 193.622 168.41 190.341C166.916 187.06 166.169 183.53 166.169 179.75ZM216.047 174.697C215.578 173.261 214.846 171.928 213.85 170.698C212.883 169.438 211.667 168.354 210.202 167.446C208.737 166.508 207.038 165.776 205.104 165.248C203.171 164.721 201.047 164.457 198.732 164.457C196.271 164.457 194.03 164.736 192.009 165.292C189.987 165.849 188.215 166.596 186.691 167.534C185.168 168.471 183.894 169.555 182.868 170.785C181.872 172.016 181.14 173.32 180.671 174.697H216.047ZM243.908 132.949H256.916V176.015L281.174 153.998H301.081L273.967 178.256L302.795 205.854H283.283L263.991 187.177L256.916 193.505V205.854H243.908V132.949ZM318.22 146.923C316.931 146.923 315.759 146.747 314.704 146.396C313.679 146.015 312.8 145.517 312.067 144.902C311.335 144.257 310.764 143.525 310.354 142.704C309.973 141.855 309.782 140.961 309.782 140.024C309.782 139.057 309.973 138.163 310.354 137.343C310.764 136.493 311.335 135.761 312.067 135.146C312.8 134.531 313.679 134.047 314.704 133.696C315.759 133.315 316.931 133.124 318.22 133.124C319.538 133.124 320.71 133.315 321.735 133.696C322.79 134.047 323.684 134.531 324.416 135.146C325.148 135.761 325.705 136.493 326.086 137.343C326.496 138.163 326.701 139.057 326.701 140.024C326.701 140.961 326.496 141.855 326.086 142.704C325.705 143.525 325.148 144.257 324.416 144.902C323.684 145.517 322.79 146.015 321.735 146.396C320.71 146.747 319.538 146.923 318.22 146.923ZM311.716 153.998H324.724V205.854H311.716V153.998ZM341.423 153.998H354.431V158.393C357.888 156.43 361.184 155.053 364.318 154.262C367.482 153.471 370.573 153.076 373.591 153.076C377.546 153.076 381.208 153.661 384.577 154.833C387.946 155.976 390.861 157.69 393.322 159.975C395.783 162.26 397.702 165.117 399.079 168.544C400.485 171.943 401.188 175.883 401.188 180.366V205.854H388.225V182.475C388.225 179.633 387.814 177.099 386.994 174.872C386.203 172.617 385.046 170.727 383.522 169.203C382.028 167.651 380.197 166.479 378.029 165.688C375.891 164.868 373.488 164.457 370.822 164.457C369.416 164.457 367.966 164.604 366.472 164.897C365.007 165.19 363.557 165.615 362.121 166.171C360.715 166.699 359.353 167.372 358.034 168.193C356.716 168.984 355.515 169.892 354.431 170.917V205.854H341.423V153.998ZM425.314 214.643C426.955 215.229 428.625 215.712 430.324 216.093C432.023 216.503 433.664 216.826 435.246 217.06C436.857 217.324 438.396 217.499 439.86 217.587C441.325 217.704 442.629 217.763 443.771 217.763C447.229 217.763 450.231 217.338 452.78 216.489C455.358 215.668 457.497 214.555 459.196 213.149C460.925 211.743 462.214 210.102 463.063 208.227C463.913 206.381 464.338 204.418 464.338 202.338V200.097C463.225 200.859 461.921 201.591 460.427 202.294C458.933 202.997 457.292 203.613 455.505 204.14C453.718 204.667 451.813 205.092 449.792 205.414C447.8 205.737 445.734 205.898 443.596 205.898C439.348 205.898 435.422 205.268 431.818 204.008C428.215 202.719 425.095 200.932 422.458 198.647C419.821 196.332 417.756 193.564 416.262 190.341C414.797 187.118 414.064 183.544 414.064 179.618C414.064 175.605 414.841 171.972 416.394 168.72C417.946 165.439 420.085 162.641 422.81 160.327C425.563 158.012 428.815 156.225 432.565 154.965C436.315 153.705 440.388 153.076 444.782 153.076C446.657 153.076 448.518 153.193 450.363 153.427C452.209 153.661 453.967 153.984 455.637 154.394C457.336 154.804 458.918 155.302 460.383 155.888C461.877 156.445 463.195 157.06 464.338 157.734V153.998H477.346V199.921C477.346 204.638 476.628 208.813 475.192 212.446C473.757 216.078 471.647 219.125 468.864 221.586C466.11 224.077 462.683 225.952 458.581 227.211C454.479 228.5 449.777 229.145 444.475 229.145C442.57 229.145 440.593 229.057 438.542 228.881C436.491 228.735 434.426 228.5 432.346 228.178C430.295 227.885 428.259 227.519 426.237 227.079C424.245 226.669 422.326 226.186 420.48 225.629L425.314 214.643ZM427.731 179.487C427.731 181.567 428.142 183.53 428.962 185.375C429.812 187.192 431.013 188.788 432.565 190.165C434.118 191.513 435.993 192.582 438.19 193.373C440.388 194.135 442.863 194.516 445.617 194.516C447.404 194.516 449.177 194.355 450.935 194.033C452.722 193.681 454.421 193.198 456.032 192.582C457.673 191.967 459.196 191.22 460.603 190.341C462.038 189.462 463.283 188.481 464.338 187.397V170.302C463.02 169.247 461.628 168.354 460.163 167.621C458.698 166.889 457.204 166.288 455.681 165.82C454.157 165.351 452.619 165.014 451.066 164.809C449.514 164.575 448.005 164.457 446.54 164.457C443.552 164.457 440.886 164.853 438.542 165.644C436.228 166.435 434.265 167.519 432.653 168.896C431.071 170.243 429.855 171.826 429.006 173.642C428.156 175.458 427.731 177.407 427.731 179.487Z" fill="white"/>
<path d="M320.401 339.797C320.401 335.896 321.135 332.382 322.601 329.255C324.068 326.101 326.087 323.417 328.661 321.203C331.262 318.962 334.333 317.247 337.875 316.057C341.444 314.839 345.304 314.231 349.454 314.231C351.225 314.231 352.968 314.341 354.684 314.563C356.427 314.784 358.087 315.088 359.664 315.476C361.269 315.863 362.763 316.334 364.146 316.887C365.558 317.413 366.803 317.994 367.882 318.63V295.222H380.167V364.077H367.882V359.47C366.803 360.217 365.53 360.923 364.063 361.587C362.597 362.251 361.02 362.832 359.332 363.33C357.644 363.828 355.887 364.215 354.061 364.492C352.263 364.796 350.478 364.949 348.707 364.949C344.557 364.949 340.738 364.34 337.252 363.122C333.793 361.905 330.819 360.189 328.329 357.976C325.838 355.762 323.888 353.12 322.477 350.049C321.093 346.95 320.401 343.532 320.401 339.797ZM333.309 339.797C333.309 341.762 333.696 343.615 334.471 345.359C335.274 347.102 336.408 348.637 337.875 349.966C339.369 351.266 341.153 352.304 343.229 353.078C345.331 353.825 347.683 354.199 350.284 354.199C351.944 354.199 353.604 354.047 355.265 353.742C356.925 353.41 358.516 352.954 360.038 352.373C361.587 351.792 363.026 351.086 364.354 350.256C365.71 349.426 366.886 348.499 367.882 347.475V330.5C366.637 329.504 365.322 328.66 363.939 327.969C362.556 327.277 361.144 326.71 359.706 326.267C358.267 325.824 356.814 325.506 355.348 325.312C353.881 325.091 352.456 324.98 351.073 324.98C348.25 324.98 345.733 325.368 343.519 326.142C341.333 326.889 339.479 327.927 337.958 329.255C336.463 330.583 335.315 332.147 334.513 333.945C333.71 335.744 333.309 337.694 333.309 339.797Z" fill="white"/>
</svg>
